# This file uses centimeters as units for non-parametric coordinates.

mtllib leaves.mtl
g default
v 5.678039 35.075976 -63.644266
v 4.279908 31.621466 -62.704826
v 3.135451 27.787405 -62.494973
v 2.674877 24.720026 -63.257507
v 2.430527 22.542441 -63.967778
v 1.839018 20.594568 -63.840565
v 11.229783 31.696564 -59.916807
v 9.989715 29.337334 -58.692012
v 8.722491 27.151691 -57.315243
v 7.958179 24.116001 -57.439100
v 7.463092 21.755814 -57.738135
v 6.763147 19.425288 -57.601807
v 20.300468 26.425358 -55.957295
v 19.383037 24.912767 -54.921803
v 18.270423 23.893196 -53.213281
v 16.738028 22.236719 -51.000290
v 14.951071 19.248107 -49.006939
v 13.435324 15.985450 -47.720412
vt 0.000000 0.000000
vt 0.200000 0.000000
vt 0.400000 0.000000
vt 0.600000 0.000000
vt 0.800000 0.000000
vt 1.000000 0.000000
vt 0.000000 0.400000
vt 0.200000 0.400000
vt 0.400000 0.400000
vt 0.600000 0.400000
vt 0.800000 0.400000
vt 1.000000 0.400000
vt 0.000000 1.000000
vt 0.200000 1.000000
vt 0.400000 1.000000
vt 0.600000 1.000000
vt 0.800000 1.000000
vt 1.000000 1.000000
vn -0.419587 0.435536 0.796401
vn -0.234741 0.540480 0.807947
vn -0.216807 0.497281 0.840063
vn -0.335144 0.458487 0.823085
vn -0.631218 0.213639 0.745602
vn -0.387478 0.465117 0.795944
vn -0.735446 0.009657 0.677514
vn -0.577148 0.310175 0.755442
vn -0.753947 0.131563 0.643626
vn -0.663531 0.328653 0.672096
vn -0.734176 0.260243 0.627104
vn -0.680341 0.371470 0.631780
vn -0.042570 0.622714 0.781291
vn -0.073101 0.532877 0.843029
vn -0.175079 0.610752 0.772223
vn -0.443428 0.483170 0.754929
vn -0.607259 0.434890 0.664911
vn -0.653036 0.419153 0.630757
s 1
g hojasm9 hojasm1
usemtl lambert4SG
f 2/2/1 8/8/2 7/7/3 1/1/4
f 3/3/5 9/9/6 8/8/2 2/2/1
f 4/4/7 10/10/8 9/9/6 3/3/5
f 5/5/9 11/11/10 10/10/8 4/4/7
f 6/6/11 12/12/12 11/11/10 5/5/9
f 8/8/2 14/14/13 13/13/14 7/7/3
f 9/9/6 15/15/15 14/14/13 8/8/2
f 10/10/8 16/16/16 15/15/15 9/9/6
f 11/11/10 17/17/17 16/16/16 10/10/8
f 12/12/12 18/18/18 17/17/17 11/11/10
